<?xml version="1.0" encoding="UTF-8" standalone="no"?>
<svg
   inkscape:export-ydpi="104.0495"
   inkscape:export-xdpi="104.0495"
   inkscape:export-filename="C:\Users\zjx8rj\OneDrive\radarsimpy\docs\radarsimpy.png"
   width="1075.1406mm"
   height="723.81903mm"
   viewBox="0 0 1075.1406 723.81904"
   version="1.1"
   id="svg8"
   inkscape:version="1.2.2 (732a01da63, 2022-12-09)"
   sodipodi:docname="radarsimx_main.svg"
   xmlns:inkscape="http://www.inkscape.org/namespaces/inkscape"
   xmlns:sodipodi="http://sodipodi.sourceforge.net/DTD/sodipodi-0.dtd"
   xmlns="http://www.w3.org/2000/svg"
   xmlns:svg="http://www.w3.org/2000/svg"
   xmlns:rdf="http://www.w3.org/1999/02/22-rdf-syntax-ns#"
   xmlns:cc="http://creativecommons.org/ns#"
   xmlns:dc="http://purl.org/dc/elements/1.1/">
  <defs
     id="defs2" />
  <sodipodi:namedview
     id="base"
     pagecolor="#ffffff"
     bordercolor="#666666"
     borderopacity="1.0"
     inkscape:pageopacity="0.0"
     inkscape:pageshadow="2"
     inkscape:zoom="0.35"
     inkscape:cx="2987.1429"
     inkscape:cy="2170"
     inkscape:document-units="mm"
     inkscape:current-layer="text386-3-4-2"
     inkscape:document-rotation="0"
     showgrid="false"
     inkscape:window-width="3840"
     inkscape:window-height="2054"
     inkscape:window-x="-11"
     inkscape:window-y="-11"
     inkscape:window-maximized="1"
     inkscape:snap-bbox="false"
     inkscape:snap-bbox-midpoints="false"
     inkscape:object-paths="true"
     inkscape:snap-bbox-edge-midpoints="true"
     inkscape:snap-smooth-nodes="true"
     inkscape:object-nodes="true"
     inkscape:snap-intersection-paths="true"
     fit-margin-left="20"
     fit-margin-right="20"
     fit-margin-top="20"
     fit-margin-bottom="20"
     inkscape:showpageshadow="2"
     inkscape:pagecheckerboard="0"
     inkscape:deskcolor="#d1d1d1" />
  <metadata
     id="metadata5">
    <rdf:RDF>
      <cc:Work
         rdf:about="">
        <dc:format>image/svg+xml</dc:format>
        <dc:type
           rdf:resource="http://purl.org/dc/dcmitype/StillImage" />
      </cc:Work>
    </rdf:RDF>
  </metadata>
  <g
     inkscape:label="Layer 1"
     inkscape:groupmode="layer"
     id="layer1"
     transform="translate(-504.38464,-1.4944188)">
    <g
       id="g402"
       transform="translate(3.050145,-5.3453742)">
      <path
         d="m 533.19634,324.96896 q 22.36458,0 32.93413,8.11865 10.72274,8.11864 10.72274,24.6623 0,7.50592 -2.91045,13.17365 -2.75728,5.51455 -7.50592,9.49729 -4.59546,3.82955 -9.95683,6.28046 l 32.16822,47.6396 h -25.73458 l -26.04094,-41.97187 h -12.40774 v 41.97187 H 501.33449 V 324.96896 Z m -1.685,18.99457 h -7.04637 v 29.56413 h 7.50592 q 11.48865,0 16.39047,-3.82956 5.05501,-3.82955 5.05501,-11.33546 0,-7.81229 -5.36137,-11.02911 -5.20819,-3.37 -16.54366,-3.37 z"
         style="font-weight:bold;font-size:153.182px;font-family:'Noto Sans';-inkscape-font-specification:'Noto Sans Bold';fill:#666666;stroke-width:3.8;stroke-linecap:round"
         id="path4131" />
      <path
         d="m 634.90917,349.01853 q 16.85002,0 25.73458,7.35274 9.03773,7.19955 9.03773,22.21139 v 55.75825 h -15.93093 l -4.44227,-11.33547 h -0.61273 q -5.36137,6.74001 -11.33547,9.80365 -5.9741,3.06364 -16.39047,3.06364 -11.18229,0 -18.53503,-6.43364 -7.35273,-6.58683 -7.35273,-20.06685 0,-13.32683 9.3441,-19.60729 9.3441,-6.43365 28.03231,-7.04637 l 14.55229,-0.45955 v -3.67637 q 0,-6.58682 -3.52319,-9.65047 -3.37,-3.06364 -9.49728,-3.06364 -6.12728,0 -11.9482,1.83819 -5.82092,1.685 -11.64183,4.2891 l -7.50592,-15.47139 q 6.74001,-3.52318 14.85865,-5.51455 8.27183,-1.99137 17.15639,-1.99137 z m 3.21682,46.8737 q -11.0291,0.30636 -15.3182,3.98273 -4.2891,3.67637 -4.2891,9.65047 0,5.20818 3.06364,7.50592 3.06364,2.14454 7.96547,2.14454 7.35273,0 12.40774,-4.28909 5.05501,-4.44228 5.05501,-12.40775 v -6.89319 z"
         style="font-weight:bold;font-size:153.182px;font-family:'Noto Sans';-inkscape-font-specification:'Noto Sans Bold';fill:#666666;stroke-width:3.8;stroke-linecap:round"
         id="path4133" />
      <path
         d="m 719.61883,435.87273 q -13.93956,0 -22.82412,-10.87592 -8.73138,-11.02911 -8.73138,-32.3214 0,-21.44548 8.88456,-32.47459 8.88456,-11.0291 23.28367,-11.0291 9.03773,0 14.85865,3.52318 5.82092,3.52319 9.19092,8.73138 h 0.76591 q -0.45954,-2.45092 -1.07227,-7.04638 -0.61273,-4.74864 -0.61273,-9.65046 v -26.80685 h 22.82412 v 116.41832 h -17.46275 l -4.44228,-10.87592 h -0.91909 q -3.37001,5.20819 -9.03774,8.88456 -5.66773,3.52318 -14.70547,3.52318 z m 7.96546,-18.22866 q 9.49729,0 13.32684,-5.51455 3.82955,-5.66773 3.98273,-16.85002 v -2.45091 q 0,-12.25456 -3.82955,-18.68821 -3.67637,-6.43364 -13.78638,-6.43364 -7.50592,0 -11.79502,6.58683 -4.28909,6.43364 -4.28909,18.6882 0,12.25456 4.28909,18.53502 4.2891,6.12728 12.10138,6.12728 z"
         style="font-weight:bold;font-size:153.182px;font-family:'Noto Sans';-inkscape-font-specification:'Noto Sans Bold';fill:#666666;stroke-width:3.8;stroke-linecap:round"
         id="path4135" />
      <path
         d="m 824.39525,349.01853 q 16.85002,0 25.73458,7.35274 9.03774,7.19955 9.03774,22.21139 v 55.75825 h -15.93093 l -4.44228,-11.33547 h -0.61273 q -5.36137,6.74001 -11.33547,9.80365 -5.97409,3.06364 -16.39047,3.06364 -11.18229,0 -18.53502,-6.43364 -7.35274,-6.58683 -7.35274,-20.06685 0,-13.32683 9.3441,-19.60729 9.34411,-6.43365 28.03231,-7.04637 l 14.55229,-0.45955 v -3.67637 q 0,-6.58682 -3.52319,-9.65047 -3.37,-3.06364 -9.49728,-3.06364 -6.12728,0 -11.9482,1.83819 -5.82091,1.685 -11.64183,4.2891 l -7.50592,-15.47139 q 6.74001,-3.52318 14.85866,-5.51455 8.27183,-1.99137 17.15638,-1.99137 z m 3.21682,46.8737 q -11.0291,0.30636 -15.3182,3.98273 -4.28909,3.67637 -4.28909,9.65047 0,5.20818 3.06364,7.50592 3.06364,2.14454 7.96546,2.14454 7.35274,0 12.40774,-4.28909 5.05501,-4.44228 5.05501,-12.40775 v -6.89319 z"
         style="font-weight:bold;font-size:153.182px;font-family:'Noto Sans';-inkscape-font-specification:'Noto Sans Bold';fill:#666666;stroke-width:3.8;stroke-linecap:round"
         id="path4137" />
      <path
         d="m 929.32494,349.17172 q 1.685,0 3.98273,0.15318 2.29773,0.15318 3.67637,0.45954 l -1.685,21.44549 q -1.07228,-0.30637 -3.21683,-0.45955 -1.99136,-0.30636 -3.52318,-0.30636 -5.82092,0 -11.18229,2.14454 -5.36137,1.99137 -8.73137,6.58683 -3.21683,4.59546 -3.21683,12.56092 v 42.5846 h -22.82412 v -83.63737 h 17.30957 l 3.37001,14.09274 h 1.07227 q 3.67637,-6.43364 10.11001,-11.0291 6.43365,-4.59546 14.85866,-4.59546 z"
         style="font-weight:bold;font-size:153.182px;font-family:'Noto Sans';-inkscape-font-specification:'Noto Sans Bold';fill:#666666;stroke-width:3.8;stroke-linecap:round"
         id="path4139" />
      <path
         d="m 1018.4769,404.01087 q 0,14.5523 -10.5695,23.28367 -10.41639,8.57819 -29.71733,8.57819 -17.30956,0 -30.94276,-6.58682 v -21.59867 q 7.81228,3.37001 16.08411,6.28046 8.42501,2.75728 16.69684,2.75728 8.57819,0 12.10138,-3.21682 3.67636,-3.37001 3.67636,-8.42501 0,-4.13592 -2.91045,-7.04637 -2.75728,-2.91046 -7.50592,-5.36137 -4.74864,-2.6041 -10.87592,-5.51456 -3.82955,-1.83818 -8.27183,-4.28909 -4.44228,-2.6041 -8.57819,-6.28046 -3.98274,-3.82955 -6.58683,-9.19093 -2.6041,-5.36137 -2.6041,-12.86728 0,-14.70548 9.95684,-22.82412 9.95683,-8.27183 27.11321,-8.27183 8.57819,0 16.23729,1.99137 7.8123,1.99136 16.2373,5.66773 l -7.5059,18.07548 q -7.5059,-3.06364 -13.48004,-4.74865 -5.9741,-1.685 -12.25456,-1.685 -6.58683,0 -10.11001,3.06364 -3.52319,3.06364 -3.52319,7.96547 0,5.82091 5.20819,9.19092 5.20819,3.37 15.47138,8.27183 8.42503,3.98273 14.24593,8.27182 5.9741,4.2891 9.1909,10.11002 3.2168,5.82091 3.2168,14.3991 z"
         style="font-weight:bold;font-size:153.182px;font-family:'Noto Sans';-inkscape-font-specification:'Noto Sans Bold';fill:#666666;stroke-width:3.8;stroke-linecap:round"
         id="path4141" />
      <path
         d="m 1048.0411,317.92259 q 5.055,0 8.7314,2.45091 3.6764,2.29773 3.6764,8.73137 0,6.28047 -3.6764,8.73138 -3.6764,2.45091 -8.7314,2.45091 -5.2082,0 -8.8845,-2.45091 -3.5232,-2.45091 -3.5232,-8.73138 0,-6.43364 3.5232,-8.73137 3.6763,-2.45091 8.8845,-2.45091 z m 11.3355,32.78095 v 83.63737 h -22.8241 v -83.63737 z"
         style="font-weight:bold;font-size:153.182px;font-family:'Noto Sans';-inkscape-font-specification:'Noto Sans Bold';fill:#666666;stroke-width:3.8;stroke-linecap:round"
         id="path4143" />
      <path
         d="m 1181.4627,349.17172 q 14.2459,0 21.4454,7.35273 7.3528,7.19956 7.3528,23.28367 v 54.53279 h -22.8241 v -48.86506 q 0,-18.07548 -12.561,-18.07548 -9.0377,0 -12.8673,6.43365 -3.8295,6.43364 -3.8295,18.53502 v 41.97187 h -22.8241 v -48.86506 q 0,-18.07548 -12.5609,-18.07548 -9.4973,0 -13.1737,7.19956 -3.5232,7.04637 -3.5232,20.37321 v 39.36777 h -22.8241 v -83.63737 h 17.4627 l 3.0637,10.72274 h 1.2254 q 3.8296,-6.43365 10.4164,-9.34411 6.74,-2.91045 13.9396,-2.91045 9.1909,0 15.6245,3.06364 6.4337,2.91045 9.8037,9.19092 h 1.9914 q 3.8295,-6.43365 10.5695,-9.34411 6.8932,-2.91045 14.0928,-2.91045 z"
         style="font-weight:bold;font-size:153.182px;font-family:'Noto Sans';-inkscape-font-specification:'Noto Sans Bold';fill:#666666;stroke-width:3.8;stroke-linecap:round"
         id="path4145" />
      <path
         d="m 1323.922,434.34091 h -26.5005 l -25.4282,-41.35914 -25.4282,41.35914 h -24.8155 l 36.3041,-56.37098 -34.0064,-53.00097 h 25.5814 l 23.5901,39.36777 23.1304,-39.36777 h 24.9687 l -34.3128,54.22643 z"
         id="path4147"
         style="font-weight:bold;font-size:153.182px;font-family:'Noto Sans';-inkscape-font-specification:'Noto Sans Bold';fill:none;fill-opacity:1;stroke:#4caf50;stroke-width:5;stroke-linecap:round;stroke-dasharray:none;stroke-opacity:1" />
      <g
         aria-label="Py"
         id="text386"
         style="font-weight:bold;font-size:152.047px;font-family:'Noto Sans';-inkscape-font-specification:'Noto Sans Bold';opacity:1;fill:#4caf50;fill-opacity:0.7;stroke:none;stroke-width:3.80001;stroke-linecap:round"
         transform="translate(-4.8222,2.2678572)">
        <path
           d="m 1261.2385,160.84344 q 20.9825,0 30.5615,9.12282 9.731,8.97078 9.731,24.78366 0,9.42692 -3.9532,17.7895 -3.9533,8.21054 -13.2281,13.22809 -9.1229,5.01755 -24.9357,5.01755 h -9.8831 V 269.405 h -22.9591 V 160.84344 Z m -1.2164,18.85383 h -10.4912 v 32.23396 h 7.6023 q 9.7311,0 15.3568,-3.80117 5.7778,-3.95322 5.7778,-12.6199 0,-15.81289 -18.2457,-15.81289 z"
           id="path1109"
           style="fill:#4caf50;fill-opacity:0.7;stroke:none" />
        <path
           d="m 1308.3731,186.38734 h 24.7837 l 15.6608,46.67843 q 1.2164,3.34503 1.8246,6.99416 0.6082,3.49708 0.9123,7.4503 h 0.4561 q 0.4562,-3.95322 1.2164,-7.4503 0.9123,-3.64913 1.9766,-6.99416 l 15.3567,-46.67843 h 24.3276 l -35.1229,93.66095 q -4.7134,12.92399 -13.8363,19.30997 -8.9707,6.53802 -20.8304,6.53802 -3.8012,0 -6.6901,-0.45614 -2.7368,-0.3041 -4.8655,-0.76024 v -17.94154 q 1.6725,0.30409 3.9532,0.60818 2.4328,0.3041 5.0176,0.3041 7.1462,0 11.2515,-4.40936 4.2573,-4.25732 6.2339,-10.3392 l 1.3684,-4.10527 z"
           id="path1111"
           style="fill:#4caf50;fill-opacity:0.7;stroke:none" />
      </g>
      <g
         aria-label="C"
         id="text386-3"
         style="font-weight:bold;font-size:152.047px;font-family:'Noto Sans';-inkscape-font-specification:'Noto Sans Bold';opacity:1;fill:#4caf50;fill-opacity:0.7;stroke:none;stroke-width:3.80001;stroke-linecap:round"
         transform="translate(2.0887)">
        <path
           d="m 1270.5966,492.4996 q -13.2281,0 -20.2222,9.88306 -6.9942,9.88305 -6.9942,27.06436 0,17.33336 6.386,26.91232 6.538,9.42691 20.8304,9.42691 6.6901,0 13.2281,-1.52047 6.6901,-1.52047 14.4445,-4.25731 v 19.30997 q -7.1462,2.88889 -14.1404,4.25731 -6.9941,1.36843 -15.6608,1.36843 -16.7252,0 -27.6726,-6.84212 -10.7953,-6.99416 -15.9649,-19.46201 -5.1696,-12.61991 -5.1696,-29.34507 0,-16.42108 5.9298,-29.04098 5.9299,-12.6199 17.1813,-19.76611 11.4036,-7.14621 27.8246,-7.14621 8.0585,0 16.117,2.12866 8.2106,1.97661 15.6609,5.47369 l -7.4503,18.70178 q -6.0819,-2.88889 -12.3159,-5.01755 -6.0818,-2.12866 -12.0117,-2.12866 z"
           id="path1114"
           style="fill:#4caf50;fill-opacity:0.7;stroke:none" />
      </g>
      <g
         aria-label="Dash"
         id="text386-3-4"
         style="font-weight:bold;font-size:152.047px;font-family:'Noto Sans';-inkscape-font-specification:'Noto Sans Bold';opacity:1;fill:#4caf50;fill-opacity:0.3;stroke:none;stroke-width:3.80001;stroke-linecap:round"
         transform="translate(-11.89,29.482143)">
        <path
           d="m 1323.6514,37.568261 q 0,27.520507 -15.6609,41.50883 -15.5088,13.836277 -43.6375,13.836277 h -30.7134 V -15.648188 h 34.0585 q 17.0292,0 29.4971,6.0818802 12.6199,6.0818799 19.462,17.9415457 6.9942,11.7076191 6.9942,29.1930231 z m -23.8714,0.608188 q 0,-18.093592 -7.9064,-26.456177 -7.9065,-8.514632 -22.9591,-8.514632 h -12.3159 v 70.701854 h 9.8831 q 33.2983,0 33.2983,-35.731045 z"
           id="path1100"
           style="fill:#4caf50;fill-opacity:0.3;stroke:none" />
        <path
           d="m 1378.3883,8.2231909 q 16.7251,0 25.5439,7.2982561 8.9707,7.146209 8.9707,22.046814 V 92.913368 H 1397.09 l -4.4093,-11.251478 h -0.6082 q -5.3217,6.690068 -11.2515,9.731008 -5.9298,3.04094 -16.269,3.04094 -11.0995,0 -18.3977,-6.385974 -7.2983,-6.538021 -7.2983,-19.918156 0,-13.228089 9.2749,-19.462016 9.2749,-6.385974 27.8246,-6.994162 L 1390.4,41.217389 v -3.649128 q 0,-6.538021 -3.4971,-9.578961 -3.345,-3.040939 -9.4269,-3.040939 -6.0819,0 -11.8597,1.824563 -5.7778,1.672517 -11.5556,4.257316 l -7.4503,-15.356746 q 6.6901,-3.497081 14.7486,-5.473692 8.2105,-1.9766111 17.0293,-1.9766111 z m 3.1929,46.5263811 q -10.9473,0.304094 -15.2047,3.953222 -4.2573,3.649128 -4.2573,9.578961 0,5.169598 3.041,7.450303 3.0409,2.128658 7.9064,2.128658 7.2983,0 12.3158,-4.257316 5.0176,-4.409363 5.0176,-12.315807 v -6.842115 z"
           id="path1102"
           style="fill:#4caf50;fill-opacity:0.3;stroke:none" />
        <path
           d="m 1494.096,68.281755 q 0,12.6199 -8.9707,19.462015 -8.8188,6.690068 -26.4562,6.690068 -8.6667,0 -14.9006,-1.216376 -6.234,-1.064329 -12.4679,-3.649128 v -18.70178 q 6.6901,3.04094 14.4445,5.017551 7.7544,1.976611 13.6842,1.976611 6.6901,0 9.4269,-1.976611 2.8889,-1.976611 2.8889,-5.169598 0,-2.128658 -1.2164,-3.801175 -1.0643,-1.672517 -4.8655,-3.801175 -3.8011,-2.128658 -11.8596,-5.473692 -7.7544,-3.345034 -12.772,-6.538021 -5.0175,-3.345034 -7.4503,-7.906444 -2.4327,-4.713457 -2.4327,-11.707619 0,-11.555571 8.9707,-17.333357 8.9708,-5.7777861 23.8714,-5.7777861 7.7544,0 14.7486,1.5204699 6.9941,1.5204702 14.4444,5.0175512 l -6.8421,16.269028 q -6.0818,-2.584799 -11.5555,-4.257316 -5.4737,-1.824563 -11.0995,-1.824563 -10.0351,0 -10.0351,5.473691 0,1.976611 1.2164,3.649128 1.3684,1.52047 5.0176,3.345034 3.8011,1.824564 11.0994,4.865504 7.1462,2.888893 12.3158,6.08188 5.1696,3.04094 7.9064,7.754397 2.8889,4.56141 2.8889,12.011713 z"
           id="path1104"
           style="fill:#4caf50;fill-opacity:0.3;stroke:none" />
        <path
           d="m 1534.3884,0.924935 q 0,6.0818799 -0.4561,11.707619 -0.3041,5.625739 -0.6082,7.906444 h 1.2164 q 3.9532,-6.385974 10.1871,-9.274867 6.234,-2.8888931 13.8363,-2.8888931 13.5322,0 21.5907,7.2982561 8.2105,7.146209 8.2105,23.111143 v 54.128731 h -22.655 V 44.410376 q 0,-17.941545 -13.3801,-17.941545 -10.1872,0 -14.1404,7.146208 -3.8012,6.994162 -3.8012,20.222251 v 39.076078 h -22.655 V -22.64235 h 22.655 z"
           id="path1106"
           style="fill:#4caf50;fill-opacity:0.3;stroke:none" />
      </g>
      <g
         aria-label="Notebook"
         id="text386-3-4-2"
         style="font-weight:bold;font-size:152.047px;font-family:'Noto Sans';-inkscape-font-specification:'Noto Sans Bold';opacity:1;fill:#4caf50;fill-opacity:0.3;stroke:none;stroke-width:3.80001;stroke-linecap:round"
         transform="translate(-2.5541,-6.047619)">
        <path
           d="m 1320.5495,735.18597 h -29.193 l -47.2867,-82.10537 h -0.6081 q 0.3041,7.75439 0.6081,15.50879 0.4562,7.7544 0.7603,15.50879 v 51.08779 h -20.5264 V 626.62442 h 29.041 l 47.1346,81.34514 h 0.4561 q -0.152,-7.60235 -0.4561,-15.05265 -0.3041,-7.4503 -0.6082,-14.90061 v -51.39188 h 20.6784 z"
           id="path1117"
           style="fill:#4caf50;fill-opacity:0.3;stroke:none" />
        <path
           d="m 1364.0135,646.54257 q 0,4.71346 -0.3041,9.27487 -0.3041,4.56141 -0.6082,7.14621 h 0.9123 q 3.345,-5.1696 8.9707,-8.66668 5.6258,-3.64913 14.5965,-3.64913 13.9884,0 22.655,10.94739 8.6667,10.79533 8.6667,31.92987 0,21.28658 -8.8187,32.23396 -8.8187,10.94738 -23.1111,10.94738 -9.1229,0 -14.4445,-3.19298 -5.1696,-3.34504 -8.5146,-7.45031 h -1.5205 l -3.8012,9.12282 h -17.3333 V 619.63026 h 22.655 z m 16.269,22.19887 q -8.8187,0 -12.4679,5.47369 -3.497,5.47369 -3.8011,16.72517 v 2.43275 q 0,12.01171 3.497,18.54973 3.6492,6.38598 13.0761,6.38598 6.9941,0 11.0994,-6.38598 4.1053,-6.53802 4.1053,-18.70178 0,-12.16376 -4.2573,-18.24564 -4.1053,-6.23392 -11.2515,-6.23392 z"
           id="path1125"
           style="fill:#4caf50;fill-opacity:0.3;stroke:none" />
      </g>
    </g>
  </g>
</svg>
