<?xml version="1.0" encoding="UTF-8" standalone="no"?>
<svg
   inkscape:export-ydpi="104.0495"
   inkscape:export-xdpi="104.0495"
   inkscape:export-filename="C:\Users\zjx8rj\OneDrive\radarsimpy\docs\radarsimpy.png"
   width="987.36359mm"
   height="694.19574mm"
   viewBox="0 0 987.36356 694.19574"
   version="1.1"
   id="svg8"
   inkscape:version="1.2.2 (732a01da63, 2022-12-09)"
   sodipodi:docname="radarsimx_main.svg"
   xmlns:inkscape="http://www.inkscape.org/namespaces/inkscape"
   xmlns:sodipodi="http://sodipodi.sourceforge.net/DTD/sodipodi-0.dtd"
   xmlns="http://www.w3.org/2000/svg"
   xmlns:svg="http://www.w3.org/2000/svg"
   xmlns:rdf="http://www.w3.org/1999/02/22-rdf-syntax-ns#"
   xmlns:cc="http://creativecommons.org/ns#"
   xmlns:dc="http://purl.org/dc/elements/1.1/">
  <defs
     id="defs2" />
  <sodipodi:namedview
     id="base"
     pagecolor="#ffffff"
     bordercolor="#666666"
     borderopacity="1.0"
     inkscape:pageopacity="0.0"
     inkscape:pageshadow="2"
     inkscape:zoom="0.35"
     inkscape:cx="2195.7143"
     inkscape:cy="647.14286"
     inkscape:document-units="mm"
     inkscape:current-layer="g402"
     inkscape:document-rotation="0"
     showgrid="false"
     inkscape:window-width="1920"
     inkscape:window-height="1001"
     inkscape:window-x="883"
     inkscape:window-y="1080"
     inkscape:window-maximized="1"
     inkscape:snap-bbox="false"
     inkscape:snap-bbox-midpoints="false"
     inkscape:object-paths="true"
     inkscape:snap-bbox-edge-midpoints="true"
     inkscape:snap-smooth-nodes="true"
     inkscape:object-nodes="true"
     inkscape:snap-intersection-paths="true"
     fit-margin-left="20"
     fit-margin-right="20"
     fit-margin-top="20"
     fit-margin-bottom="20"
     inkscape:showpageshadow="2"
     inkscape:pagecheckerboard="0"
     inkscape:deskcolor="#d1d1d1" />
  <metadata
     id="metadata5">
    <rdf:RDF>
      <cc:Work
         rdf:about="">
        <dc:format>image/svg+xml</dc:format>
        <dc:type
           rdf:resource="http://purl.org/dc/dcmitype/StillImage" />
      </cc:Work>
    </rdf:RDF>
  </metadata>
  <g
     inkscape:label="Layer 1"
     inkscape:groupmode="layer"
     id="layer1"
     transform="translate(-504.38464,-24.174501)">
    <g
       id="g402"
       transform="translate(3.050145,-5.3453742)">
      <g
         aria-label="LIB"
         id="text2-3-5"
         style="font-weight:bold;font-size:151.694px;font-family:'Noto Sans';-inkscape-font-specification:'Noto Sans Bold';fill:#4caf50;fill-opacity:0.301961;stroke-width:0.264582">
        <path
           d="M 1217.166,723.71564 V 615.40612 h 22.9058 v 89.34777 h 43.9913 v 18.96175 z"
           id="path327" />
        <path
           d="m 1343.3755,723.71564 h -49.3006 v -13.04569 l 13.1974,-6.06776 v -70.08262 l -13.1974,-6.06776 v -13.04569 h 49.3006 v 13.04569 l -13.1974,6.06776 v 70.08262 l 13.1974,6.06776 z"
           id="path329" />
        <path
           d="m 1395.5582,615.40612 q 21.6923,0 32.7659,6.06776 11.0737,6.06776 11.0737,21.38886 0,9.25333 -4.3991,15.62448 -4.2475,6.37115 -12.2872,7.73639 v 0.75847 q 5.4609,1.06186 9.8601,3.79235 4.3991,2.73049 6.9779,7.88809 2.5788,5.1576 2.5788,13.65246 0,14.71432 -10.6186,23.05749 -10.6186,8.34317 -29.1252,8.34317 h -40.5023 V 615.40612 Z m 2.5788,42.9294 q 10.0118,0 13.8042,-3.18557 3.944,-3.18557 3.944,-9.25333 0,-6.21946 -4.5508,-8.94995 -4.5508,-2.73049 -14.4109,-2.73049 h -12.1355 v 24.11934 z m -13.349,18.20328 v 28.21509 h 15.0177 q 10.3152,0 14.4109,-3.94405 4.0957,-4.09573 4.0957,-10.77027 0,-6.06776 -4.2474,-9.70842 -4.0957,-3.79235 -15.0177,-3.79235 z"
           id="path331" />
      </g>
      <text
         xml:space="preserve"
         style="font-weight:bold;font-size:151.694px;font-family:'Noto Sans';-inkscape-font-specification:'Noto Sans Bold';fill:#4caf50;fill-opacity:0.301961;stroke-width:0.264582"
         x="1201.4523"
         y="915.09961"
         id="text2-3-5-4"><tspan
           sodipodi:role="line"
           id="tspan1-0-2-1"
           style="font-size:151.694px;fill:#4caf50;fill-opacity:0.301961;stroke-width:0.264582"
           x="1201.4523"
           y="915.09961">LIB</tspan></text>
      <g
         aria-label="CPP"
         id="text2-3-5-2"
         style="font-weight:bold;font-size:151.694px;font-family:'Noto Sans';-inkscape-font-specification:'Noto Sans Bold';fill:#4caf50;fill-opacity:0.698039;stroke-width:0.264582">
        <path
           d="m 1267.9834,486.53107 q -13.1974,0 -20.1753,9.86011 -6.9779,9.86011 -6.9779,27.00153 0,17.29312 6.3711,26.84984 6.5229,9.40503 20.7821,9.40503 6.6746,0 13.1974,-1.51694 6.6745,-1.51694 14.4109,-4.24744 v 19.26514 q -7.1296,2.88219 -14.1075,4.24743 -6.9779,1.36525 -15.6245,1.36525 -16.6863,0 -27.6083,-6.82623 -10.7703,-6.97792 -15.9279,-19.41683 -5.1576,-12.5906 -5.1576,-29.27694 0,-16.38296 5.9161,-28.97356 5.9161,-12.5906 17.1414,-19.72022 11.3771,-7.12962 27.76,-7.12962 8.0398,0 16.0796,2.12372 8.1915,1.97202 15.6245,5.46098 l -7.433,18.65837 q -6.0678,-2.88219 -12.2873,-5.00591 -6.0677,-2.12371 -11.9838,-2.12371 z"
           id="path320" />
        <path
           d="m 1353.2353,468.93456 q 20.9338,0 30.4905,9.10164 9.7084,8.94995 9.7084,24.72613 0,9.40502 -3.944,17.74819 -3.9441,8.19148 -13.1974,13.19738 -9.1016,5.0059 -24.8778,5.0059 h -9.8601 v 38.53028 h -22.9058 V 468.93456 Z m -1.2135,18.81006 h -10.4669 v 32.15913 h 7.5847 q 9.7084,0 15.3211,-3.79235 5.7643,-3.94405 5.7643,-12.5906 0,-15.77618 -18.2032,-15.77618 z"
           id="path322" />
        <path
           d="m 1448.4992,468.93456 q 20.9338,0 30.4905,9.10164 9.7084,8.94995 9.7084,24.72613 0,9.40502 -3.944,17.74819 -3.9441,8.19148 -13.1974,13.19738 -9.1017,5.0059 -24.8778,5.0059 h -9.8601 v 38.53028 H 1413.913 V 468.93456 Z m -1.2136,18.81006 h -10.4668 v 32.15913 h 7.5847 q 9.7084,0 15.321,-3.79235 5.7644,-3.94405 5.7644,-12.5906 0,-15.77618 -18.2033,-15.77618 z"
           id="path324" />
      </g>
      <g
         aria-label="PY"
         id="text2-3-5-2-6"
         style="font-weight:bold;font-size:151.694px;font-family:'Noto Sans';-inkscape-font-specification:'Noto Sans Bold';fill:#4caf50;fill-opacity:0.698039;stroke-width:0.264582">
        <path
           d="m 1251.7522,175.99145 q 20.9338,0 30.4905,9.10164 9.7085,8.94994 9.7085,24.72612 0,9.40503 -3.9441,17.7482 -3.944,8.19147 -13.1974,13.19738 -9.1016,5.0059 -24.8778,5.0059 h -9.8601 v 38.53027 H 1217.166 V 175.99145 Z m -1.2135,18.81005 h -10.4669 v 32.15913 h 7.5847 q 9.7084,0 15.3211,-3.79235 5.7644,-3.94404 5.7644,-12.5906 0,-15.77618 -18.2033,-15.77618 z"
           id="path315" />
        <path
           d="m 1346.1059,220.58948 22.6025,-44.59803 h 24.7261 l -35.9515,66.13858 v 42.17093 h -22.7541 V 242.8885 l -35.9515,-66.89705 h 24.8778 z"
           id="path317" />
      </g>
      <path
         d="m 533.19634,323.79166 q 22.36458,0 32.93413,8.11865 10.72274,8.11864 10.72274,24.6623 0,7.50592 -2.91045,13.17365 -2.75728,5.51455 -7.50592,9.49729 -4.59546,3.82955 -9.95683,6.28046 l 32.16822,47.6396 h -25.73458 l -26.04094,-41.97187 h -12.40774 v 41.97187 H 501.33449 V 323.79166 Z m -1.685,18.99457 h -7.04637 v 29.56413 h 7.50592 q 11.48865,0 16.39047,-3.82956 5.05501,-3.82955 5.05501,-11.33546 0,-7.81229 -5.36137,-11.02911 -5.20819,-3.37 -16.54366,-3.37 z"
         style="font-weight:bold;font-size:153.182px;font-family:'Noto Sans';-inkscape-font-specification:'Noto Sans Bold';fill:#666666;stroke-width:3.8;stroke-linecap:round"
         id="path4131" />
      <path
         d="m 634.90917,346.30941 q 16.85002,0 25.73458,7.35274 9.03773,7.19955 9.03773,22.21139 v 55.75825 h -15.93093 l -4.44227,-11.33547 h -0.61273 q -5.36137,6.74001 -11.33547,9.80365 -5.9741,3.06364 -16.39047,3.06364 -11.18229,0 -18.53503,-6.43364 -7.35273,-6.58683 -7.35273,-20.06685 0,-13.32683 9.3441,-19.60729 9.3441,-6.43365 28.03231,-7.04637 l 14.55229,-0.45955 v -3.67637 q 0,-6.58682 -3.52319,-9.65047 -3.37,-3.06364 -9.49728,-3.06364 -6.12728,0 -11.9482,1.83819 -5.82092,1.685 -11.64183,4.2891 l -7.50592,-15.47139 q 6.74001,-3.52318 14.85865,-5.51455 8.27183,-1.99137 17.15639,-1.99137 z m 3.21682,46.8737 q -11.0291,0.30636 -15.3182,3.98273 -4.2891,3.67637 -4.2891,9.65047 0,5.20818 3.06364,7.50592 3.06364,2.14454 7.96547,2.14454 7.35273,0 12.40774,-4.28909 5.05501,-4.44228 5.05501,-12.40775 v -6.89319 z"
         style="font-weight:bold;font-size:153.182px;font-family:'Noto Sans';-inkscape-font-specification:'Noto Sans Bold';fill:#666666;stroke-width:3.8;stroke-linecap:round"
         id="path4133" />
      <path
         d="m 719.61883,433.16361 q -13.93956,0 -22.82412,-10.87592 -8.73138,-11.02911 -8.73138,-32.3214 0,-21.44548 8.88456,-32.47459 8.88456,-11.0291 23.28367,-11.0291 9.03773,0 14.85865,3.52318 5.82092,3.52319 9.19092,8.73138 h 0.76591 q -0.45954,-2.45092 -1.07227,-7.04638 -0.61273,-4.74864 -0.61273,-9.65046 v -26.80685 h 22.82412 v 116.41832 h -17.46275 l -4.44228,-10.87592 h -0.91909 q -3.37001,5.20819 -9.03774,8.88456 -5.66773,3.52318 -14.70547,3.52318 z m 7.96546,-18.22866 q 9.49729,0 13.32684,-5.51455 3.82955,-5.66773 3.98273,-16.85002 v -2.45091 q 0,-12.25456 -3.82955,-18.68821 -3.67637,-6.43364 -13.78638,-6.43364 -7.50592,0 -11.79502,6.58683 -4.28909,6.43364 -4.28909,18.6882 0,12.25456 4.28909,18.53502 4.2891,6.12728 12.10138,6.12728 z"
         style="font-weight:bold;font-size:153.182px;font-family:'Noto Sans';-inkscape-font-specification:'Noto Sans Bold';fill:#666666;stroke-width:3.8;stroke-linecap:round"
         id="path4135" />
      <path
         d="m 824.39525,346.30941 q 16.85002,0 25.73458,7.35274 9.03774,7.19955 9.03774,22.21139 v 55.75825 h -15.93093 l -4.44228,-11.33547 h -0.61273 q -5.36137,6.74001 -11.33547,9.80365 -5.97409,3.06364 -16.39047,3.06364 -11.18229,0 -18.53502,-6.43364 -7.35274,-6.58683 -7.35274,-20.06685 0,-13.32683 9.3441,-19.60729 9.34411,-6.43365 28.03231,-7.04637 l 14.55229,-0.45955 v -3.67637 q 0,-6.58682 -3.52319,-9.65047 -3.37,-3.06364 -9.49728,-3.06364 -6.12728,0 -11.9482,1.83819 -5.82091,1.685 -11.64183,4.2891 l -7.50592,-15.47139 q 6.74001,-3.52318 14.85866,-5.51455 8.27183,-1.99137 17.15638,-1.99137 z m 3.21682,46.8737 q -11.0291,0.30636 -15.3182,3.98273 -4.28909,3.67637 -4.28909,9.65047 0,5.20818 3.06364,7.50592 3.06364,2.14454 7.96546,2.14454 7.35274,0 12.40774,-4.28909 5.05501,-4.44228 5.05501,-12.40775 v -6.89319 z"
         style="font-weight:bold;font-size:153.182px;font-family:'Noto Sans';-inkscape-font-specification:'Noto Sans Bold';fill:#666666;stroke-width:3.8;stroke-linecap:round"
         id="path4137" />
      <path
         d="m 929.32494,347.99442 q 1.685,0 3.98273,0.15318 2.29773,0.15318 3.67637,0.45954 l -1.685,21.44549 q -1.07228,-0.30637 -3.21683,-0.45955 -1.99136,-0.30636 -3.52318,-0.30636 -5.82092,0 -11.18229,2.14454 -5.36137,1.99137 -8.73137,6.58683 -3.21683,4.59546 -3.21683,12.56092 v 42.5846 h -22.82412 v -83.63737 h 17.30957 l 3.37001,14.09274 h 1.07227 q 3.67637,-6.43364 10.11001,-11.0291 6.43365,-4.59546 14.85866,-4.59546 z"
         style="font-weight:bold;font-size:153.182px;font-family:'Noto Sans';-inkscape-font-specification:'Noto Sans Bold';fill:#666666;stroke-width:3.8;stroke-linecap:round"
         id="path4139" />
      <path
         d="m 1018.4769,401.30175 q 0,14.5523 -10.5695,23.28367 -10.41639,8.57819 -29.71733,8.57819 -17.30956,0 -30.94276,-6.58682 v -21.59867 q 7.81228,3.37001 16.08411,6.28046 8.42501,2.75728 16.69684,2.75728 8.57819,0 12.10138,-3.21682 3.67636,-3.37001 3.67636,-8.42501 0,-4.13592 -2.91045,-7.04637 -2.75728,-2.91046 -7.50592,-5.36137 -4.74864,-2.6041 -10.87592,-5.51456 -3.82955,-1.83818 -8.27183,-4.28909 -4.44228,-2.6041 -8.57819,-6.28046 -3.98274,-3.82955 -6.58683,-9.19093 -2.6041,-5.36137 -2.6041,-12.86728 0,-14.70548 9.95684,-22.82412 9.95683,-8.27183 27.11321,-8.27183 8.57819,0 16.23729,1.99137 7.8123,1.99136 16.2373,5.66773 l -7.5059,18.07548 q -7.5059,-3.06364 -13.48004,-4.74865 -5.9741,-1.685 -12.25456,-1.685 -6.58683,0 -10.11001,3.06364 -3.52319,3.06364 -3.52319,7.96547 0,5.82091 5.20819,9.19092 5.20819,3.37 15.47138,8.27183 8.42503,3.98273 14.24593,8.27182 5.9741,4.2891 9.1909,10.11002 3.2168,5.82091 3.2168,14.3991 z"
         style="font-weight:bold;font-size:153.182px;font-family:'Noto Sans';-inkscape-font-specification:'Noto Sans Bold';fill:#666666;stroke-width:3.8;stroke-linecap:round"
         id="path4141" />
      <path
         d="m 1048.0411,316.74529 q 5.055,0 8.7314,2.45091 3.6764,2.29773 3.6764,8.73137 0,6.28047 -3.6764,8.73138 -3.6764,2.45091 -8.7314,2.45091 -5.2082,0 -8.8845,-2.45091 -3.5232,-2.45091 -3.5232,-8.73138 0,-6.43364 3.5232,-8.73137 3.6763,-2.45091 8.8845,-2.45091 z m 11.3355,32.78095 v 83.63737 h -22.8241 v -83.63737 z"
         style="font-weight:bold;font-size:153.182px;font-family:'Noto Sans';-inkscape-font-specification:'Noto Sans Bold';fill:#666666;stroke-width:3.8;stroke-linecap:round"
         id="path4143" />
      <path
         d="m 1181.4627,347.99442 q 14.2459,0 21.4454,7.35273 7.3528,7.19956 7.3528,23.28367 v 54.53279 h -22.8241 v -48.86506 q 0,-18.07548 -12.561,-18.07548 -9.0377,0 -12.8673,6.43365 -3.8295,6.43364 -3.8295,18.53502 v 41.97187 h -22.8241 v -48.86506 q 0,-18.07548 -12.5609,-18.07548 -9.4973,0 -13.1737,7.19956 -3.5232,7.04637 -3.5232,20.37321 v 39.36777 h -22.8241 v -83.63737 h 17.4627 l 3.0637,10.72274 h 1.2254 q 3.8296,-6.43365 10.4164,-9.34411 6.74,-2.91045 13.9396,-2.91045 9.1909,0 15.6245,3.06364 6.4337,2.91045 9.8037,9.19092 h 1.9914 q 3.8295,-6.43365 10.5695,-9.34411 6.8932,-2.91045 14.0928,-2.91045 z"
         style="font-weight:bold;font-size:153.182px;font-family:'Noto Sans';-inkscape-font-specification:'Noto Sans Bold';fill:#666666;stroke-width:3.8;stroke-linecap:round"
         id="path4145" />
      <path
         d="m 1323.922,431.30373 h -26.5005 l -25.4282,-41.35914 -25.4282,41.35914 h -24.8155 l 36.3041,-56.37098 -34.0064,-53.00097 h 25.5814 l 23.5901,39.36777 23.1304,-39.36777 h 24.9687 l -34.3128,54.22643 z"
         id="path4147"
         style="font-weight:bold;font-size:153.182px;font-family:'Noto Sans';-inkscape-font-specification:'Noto Sans Bold';fill:none;fill-opacity:1;stroke:#4caf50;stroke-width:5;stroke-linecap:round;stroke-dasharray:none;stroke-opacity:1" />
      <g
         aria-label="Dash"
         id="text386-3-4"
         style="font-weight:bold;font-size:152.047px;font-family:'Noto Sans';-inkscape-font-specification:'Noto Sans Bold';opacity:1;fill:#4caf50;fill-opacity:0.3;stroke:none;stroke-width:3.80001;stroke-linecap:round"
         transform="translate(-10.950623,-112.59779)">
        <path
           d="m 1323.6514,37.568261 q 0,27.520507 -15.6609,41.50883 -15.5088,13.836277 -43.6375,13.836277 h -30.7134 V -15.648188 h 34.0585 q 17.0292,0 29.4971,6.0818802 12.6199,6.0818799 19.462,17.9415457 6.9942,11.7076191 6.9942,29.1930231 z m -23.8714,0.608188 q 0,-18.093592 -7.9064,-26.456177 -7.9065,-8.514632 -22.9591,-8.514632 h -12.3159 v 70.701854 h 9.8831 q 33.2983,0 33.2983,-35.731045 z"
           id="path1100"
           style="fill:#4caf50;fill-opacity:0.3;stroke:none" />
        <path
           d="m 1378.3883,8.2231909 q 16.7251,0 25.5439,7.2982561 8.9707,7.146209 8.9707,22.046814 V 92.913368 H 1397.09 l -4.4093,-11.251478 h -0.6082 q -5.3217,6.690068 -11.2515,9.731008 -5.9298,3.04094 -16.269,3.04094 -11.0995,0 -18.3977,-6.385974 -7.2983,-6.538021 -7.2983,-19.918156 0,-13.228089 9.2749,-19.462016 9.2749,-6.385974 27.8246,-6.994162 L 1390.4,41.217389 v -3.649128 q 0,-6.538021 -3.4971,-9.578961 -3.345,-3.040939 -9.4269,-3.040939 -6.0819,0 -11.8597,1.824563 -5.7778,1.672517 -11.5556,4.257316 l -7.4503,-15.356746 q 6.6901,-3.497081 14.7486,-5.473692 8.2105,-1.9766111 17.0293,-1.9766111 z m 3.1929,46.5263811 q -10.9473,0.304094 -15.2047,3.953222 -4.2573,3.649128 -4.2573,9.578961 0,5.169598 3.041,7.450303 3.0409,2.128658 7.9064,2.128658 7.2983,0 12.3158,-4.257316 5.0176,-4.409363 5.0176,-12.315807 v -6.842115 z"
           id="path1102"
           style="fill:#4caf50;fill-opacity:0.3;stroke:none" />
        <path
           d="m 1494.096,68.281755 q 0,12.6199 -8.9707,19.462015 -8.8188,6.690068 -26.4562,6.690068 -8.6667,0 -14.9006,-1.216376 -6.234,-1.064329 -12.4679,-3.649128 v -18.70178 q 6.6901,3.04094 14.4445,5.017551 7.7544,1.976611 13.6842,1.976611 6.6901,0 9.4269,-1.976611 2.8889,-1.976611 2.8889,-5.169598 0,-2.128658 -1.2164,-3.801175 -1.0643,-1.672517 -4.8655,-3.801175 -3.8011,-2.128658 -11.8596,-5.473692 -7.7544,-3.345034 -12.772,-6.538021 -5.0175,-3.345034 -7.4503,-7.906444 -2.4327,-4.713457 -2.4327,-11.707619 0,-11.555571 8.9707,-17.333357 8.9708,-5.7777861 23.8714,-5.7777861 7.7544,0 14.7486,1.5204699 6.9941,1.5204702 14.4444,5.0175512 l -6.8421,16.269028 q -6.0818,-2.584799 -11.5555,-4.257316 -5.4737,-1.824563 -11.0995,-1.824563 -10.0351,0 -10.0351,5.473691 0,1.976611 1.2164,3.649128 1.3684,1.52047 5.0176,3.345034 3.8011,1.824564 11.0994,4.865504 7.1462,2.888893 12.3158,6.08188 5.1696,3.04094 7.9064,7.754397 2.8889,4.56141 2.8889,12.011713 z"
           id="path1104"
           style="fill:#4caf50;fill-opacity:0.3;stroke:none" />
        <path
           d="m 1534.3884,0.924935 q 0,6.0818799 -0.4561,11.707619 -0.3041,5.625739 -0.6082,7.906444 h 1.2164 q 3.9532,-6.385974 10.1871,-9.274867 6.234,-2.8888931 13.8363,-2.8888931 13.5322,0 21.5907,7.2982561 8.2105,7.146209 8.2105,23.111143 v 54.128731 h -22.655 V 44.410376 q 0,-17.941545 -13.3801,-17.941545 -10.1872,0 -14.1404,7.146208 -3.8012,6.994162 -3.8012,20.222251 v 39.076078 h -22.655 V -22.64235 h 22.655 z"
           id="path1106"
           style="fill:#4caf50;fill-opacity:0.3;stroke:none" />
      </g>
      <g
         aria-label="Notebook"
         id="text386-3-4-2"
         style="font-weight:bold;font-size:152.047px;font-family:'Noto Sans';-inkscape-font-specification:'Noto Sans Bold';opacity:1;fill:#4caf50;fill-opacity:0.3;stroke:none;stroke-width:3.80001;stroke-linecap:round"
         transform="translate(-2.5541,140.39996)">
        <path
           d="m 1320.5495,735.18597 h -29.193 l -47.2867,-82.10537 h -0.6081 q 0.3041,7.75439 0.6081,15.50879 0.4562,7.7544 0.7603,15.50879 v 51.08779 h -20.5264 V 626.62442 h 29.041 l 47.1346,81.34514 h 0.4561 q -0.152,-7.60235 -0.4561,-15.05265 -0.3041,-7.4503 -0.6082,-14.90061 v -51.39188 h 20.6784 z"
           id="path1117"
           style="fill:#4caf50;fill-opacity:0.3;stroke:none" />
        <path
           d="m 1364.0135,646.54257 q 0,4.71346 -0.3041,9.27487 -0.3041,4.56141 -0.6082,7.14621 h 0.9123 q 3.345,-5.1696 8.9707,-8.66668 5.6258,-3.64913 14.5965,-3.64913 13.9884,0 22.655,10.94739 8.6667,10.79533 8.6667,31.92987 0,21.28658 -8.8187,32.23396 -8.8187,10.94738 -23.1111,10.94738 -9.1229,0 -14.4445,-3.19298 -5.1696,-3.34504 -8.5146,-7.45031 h -1.5205 l -3.8012,9.12282 h -17.3333 V 619.63026 h 22.655 z m 16.269,22.19887 q -8.8187,0 -12.4679,5.47369 -3.497,5.47369 -3.8011,16.72517 v 2.43275 q 0,12.01171 3.497,18.54973 3.6492,6.38598 13.0761,6.38598 6.9941,0 11.0994,-6.38598 4.1053,-6.53802 4.1053,-18.70178 0,-12.16376 -4.2573,-18.24564 -4.1053,-6.23392 -11.2515,-6.23392 z"
           id="path1125"
           style="fill:#4caf50;fill-opacity:0.3;stroke:none" />
      </g>
      <path
         d="m 1262.9776,137.82939 -26.0914,-84.948639 h -0.6067 q 0.1516,3.03388 0.455,9.10164 0.3034,6.06776 0.6068,13.045684 0.3034,6.82623 0.3034,12.438908 V 137.82939 H 1217.166 V 29.519875 h 31.249 l 25.6363,82.824925 h 0.455 l 27.1533,-82.824925 h 31.2489 V 137.82939 h -21.3888 V 86.556819 q 0,-5.157596 0.1517,-11.832132 0.3034,-6.674536 0.4551,-12.590602 0.3033,-6.06776 0.455,-9.10164 h -0.6067 l -27.9117,84.796945 z"
         id="text2"
         style="font-weight:bold;font-size:151.694px;font-family:'Noto Sans';-inkscape-font-specification:'Noto Sans Bold';fill:#4caf50;fill-opacity:0.301961;stroke-width:0.264582"
         aria-label="M" />
    </g>
  </g>
</svg>
